<mxfile host="app.diagrams.net" modified="2023-08-08T03:20:08.108Z" agent="Mozilla/5.0 (Windows NT 10.0; Win64; x64) AppleWebKit/537.36 (KHTML, like Gecko) Chrome/115.0.0.0 Safari/537.36" etag="PmIzhuFzII3LzY4Ww2fq" version="21.6.6" type="device">
  <diagram name="Página-1" id="-GnYnlEV1BG8clEGPdR3">
    <mxGraphModel dx="1120" dy="522" grid="1" gridSize="10" guides="1" tooltips="1" connect="1" arrows="1" fold="1" page="1" pageScale="1" pageWidth="827" pageHeight="1169" math="0" shadow="0">
      <root>
        <mxCell id="0" />
        <mxCell id="1" parent="0" />
        <mxCell id="ZcFm7ZKOEbG-pzqydENA-1" value="&lt;font style=&quot;vertical-align: inherit;&quot;&gt;&lt;font style=&quot;vertical-align: inherit;&quot;&gt;&lt;font style=&quot;vertical-align: inherit;&quot;&gt;&lt;font style=&quot;vertical-align: inherit;&quot;&gt;&lt;font style=&quot;vertical-align: inherit;&quot;&gt;&lt;font style=&quot;vertical-align: inherit;&quot;&gt;&lt;font style=&quot;vertical-align: inherit;&quot;&gt;&lt;font style=&quot;vertical-align: inherit;&quot;&gt;Usuario&lt;/font&gt;&lt;/font&gt;&lt;/font&gt;&lt;/font&gt;&lt;/font&gt;&lt;/font&gt;&lt;/font&gt;&lt;/font&gt;" style="shape=umlActor;verticalLabelPosition=bottom;verticalAlign=top;html=1;outlineConnect=0;" vertex="1" parent="1">
          <mxGeometry x="25" y="70" width="30" height="60" as="geometry" />
        </mxCell>
        <mxCell id="ZcFm7ZKOEbG-pzqydENA-10" value="&lt;br&gt;&lt;br&gt;&lt;br&gt;&lt;br&gt;&lt;br&gt;&lt;br&gt;&lt;br&gt;&lt;br&gt;&lt;br&gt;&lt;br&gt;&lt;br&gt;&lt;br&gt;&lt;br&gt;&lt;br&gt;&lt;br&gt;&lt;br&gt;&lt;br&gt;&lt;br&gt;&lt;br&gt;&lt;br&gt;&lt;br&gt;&lt;br&gt;&lt;br&gt;&lt;br&gt;&lt;br&gt;&lt;br&gt;&lt;br&gt;&lt;br&gt;&lt;br&gt;&lt;br&gt;&lt;br&gt;&lt;br&gt;&lt;font style=&quot;vertical-align: inherit;&quot;&gt;&lt;font style=&quot;vertical-align: inherit;&quot;&gt;&amp;nbsp; &amp;nbsp; &amp;nbsp; &amp;nbsp; &amp;nbsp; &amp;nbsp; &amp;nbsp; &amp;nbsp; &amp;nbsp; &amp;nbsp; &amp;nbsp; &amp;nbsp; &amp;nbsp; &amp;nbsp; &amp;nbsp; &amp;nbsp; &amp;nbsp; &amp;nbsp; &amp;nbsp; &amp;nbsp; &amp;nbsp; &amp;nbsp; &amp;nbsp; &amp;nbsp; &amp;nbsp; &amp;nbsp; &amp;nbsp; &amp;nbsp; &amp;nbsp; &amp;nbsp; &amp;nbsp; &amp;nbsp; &amp;nbsp; &amp;nbsp; &amp;nbsp; &amp;nbsp; &amp;nbsp; &amp;nbsp; &amp;nbsp; &amp;nbsp; &amp;nbsp; &amp;nbsp; &amp;nbsp; &amp;nbsp; &amp;nbsp; &amp;nbsp; &amp;nbsp; &amp;nbsp; &amp;nbsp; &amp;nbsp; &amp;nbsp; &amp;nbsp; &amp;nbsp; &amp;nbsp; &amp;nbsp; &amp;nbsp; &amp;nbsp; &amp;nbsp; &amp;nbsp; &lt;br&gt;&lt;br&gt;&lt;br&gt;&lt;br&gt;&lt;br&gt;&lt;br&gt;&lt;br&gt;&amp;nbsp; &amp;nbsp; &amp;nbsp; &amp;nbsp; &amp;nbsp; &amp;nbsp; &amp;nbsp; &amp;nbsp; &amp;nbsp; &amp;nbsp; &amp;nbsp; &amp;nbsp; &amp;nbsp; &amp;nbsp; &amp;nbsp; &amp;nbsp; &amp;nbsp; &amp;nbsp; &amp;nbsp; &amp;nbsp; &amp;nbsp; &amp;nbsp; &amp;nbsp; &amp;nbsp; &amp;nbsp; &amp;nbsp; &amp;nbsp; &amp;nbsp; &amp;nbsp; &amp;nbsp; &amp;nbsp; &amp;nbsp; &amp;nbsp; &amp;nbsp; &amp;nbsp; &amp;nbsp; &amp;nbsp; &amp;nbsp; &amp;nbsp; &amp;nbsp; &amp;nbsp; &amp;nbsp; &amp;nbsp; &amp;nbsp; &amp;nbsp; &amp;nbsp; &amp;nbsp; &amp;nbsp; &amp;nbsp; &amp;nbsp; &amp;nbsp; &amp;nbsp; &amp;nbsp; &amp;nbsp; &amp;nbsp; &amp;nbsp; &amp;nbsp; &amp;nbsp; &amp;nbsp; &amp;nbsp; &amp;nbsp; &amp;nbsp; &amp;nbsp; &amp;nbsp; &amp;nbsp; &amp;nbsp; &amp;nbsp; &amp;nbsp; &amp;nbsp; &amp;nbsp; &amp;nbsp; &amp;nbsp; &amp;nbsp; &amp;nbsp; &amp;nbsp; &amp;nbsp; &amp;nbsp; &amp;nbsp; &amp;nbsp;&amp;nbsp;&lt;font style=&quot;font-size: 16px;&quot;&gt;&lt;font style=&quot;vertical-align: inherit;&quot;&gt;&lt;font style=&quot;vertical-align: inherit;&quot;&gt;Sistema&lt;/font&gt;&lt;/font&gt;&lt;/font&gt;&lt;/font&gt;&lt;/font&gt;" style="whiteSpace=wrap;html=1;aspect=fixed;" vertex="1" parent="1">
          <mxGeometry x="90" y="40" width="640" height="640" as="geometry" />
        </mxCell>
        <mxCell id="ZcFm7ZKOEbG-pzqydENA-11" value="Administrar invetario" style="ellipse;whiteSpace=wrap;html=1;" vertex="1" parent="1">
          <mxGeometry x="497.5" y="440" width="108" height="50" as="geometry" />
        </mxCell>
        <mxCell id="ZcFm7ZKOEbG-pzqydENA-13" value="Prestar Libro" style="ellipse;whiteSpace=wrap;html=1;" vertex="1" parent="1">
          <mxGeometry x="170" y="240" width="91.25" height="50" as="geometry" />
        </mxCell>
        <mxCell id="ZcFm7ZKOEbG-pzqydENA-14" value="Gestionar Multas" style="ellipse;whiteSpace=wrap;html=1;" vertex="1" parent="1">
          <mxGeometry x="497.5" y="292.5" width="117" height="57.5" as="geometry" />
        </mxCell>
        <mxCell id="ZcFm7ZKOEbG-pzqydENA-15" value="Renovar Prestamo" style="ellipse;whiteSpace=wrap;html=1;" vertex="1" parent="1">
          <mxGeometry x="162.66" y="550" width="105.94" height="60" as="geometry" />
        </mxCell>
        <mxCell id="ZcFm7ZKOEbG-pzqydENA-16" value="Ver Historial De Prestamo" style="ellipse;whiteSpace=wrap;html=1;" vertex="1" parent="1">
          <mxGeometry x="491.5" y="210" width="117" height="70" as="geometry" />
        </mxCell>
        <mxCell id="ZcFm7ZKOEbG-pzqydENA-17" value="Resgistro" style="ellipse;whiteSpace=wrap;html=1;" vertex="1" parent="1">
          <mxGeometry x="168.75" y="50" width="85" height="60" as="geometry" />
        </mxCell>
        <mxCell id="ZcFm7ZKOEbG-pzqydENA-18" value="Reservar Libro" style="ellipse;whiteSpace=wrap;html=1;" vertex="1" parent="1">
          <mxGeometry x="170" y="490" width="101.88" height="50" as="geometry" />
        </mxCell>
        <mxCell id="ZcFm7ZKOEbG-pzqydENA-19" value="Ver detalles del libro" style="ellipse;whiteSpace=wrap;html=1;" vertex="1" parent="1">
          <mxGeometry x="160.63" y="360" width="114.37" height="50" as="geometry" />
        </mxCell>
        <mxCell id="ZcFm7ZKOEbG-pzqydENA-20" value="Devolver Libro" style="ellipse;whiteSpace=wrap;html=1;" vertex="1" parent="1">
          <mxGeometry x="160.63" y="300" width="110" height="50" as="geometry" />
        </mxCell>
        <mxCell id="ZcFm7ZKOEbG-pzqydENA-21" value="Inicio de sección" style="ellipse;whiteSpace=wrap;html=1;" vertex="1" parent="1">
          <mxGeometry x="168.75" y="120" width="85" height="60" as="geometry" />
        </mxCell>
        <mxCell id="ZcFm7ZKOEbG-pzqydENA-22" value="Búsqueda De un libro&amp;nbsp;" style="ellipse;whiteSpace=wrap;html=1;" vertex="1" parent="1">
          <mxGeometry x="168.75" y="185" width="90" height="50" as="geometry" />
        </mxCell>
        <mxCell id="ZcFm7ZKOEbG-pzqydENA-23" value="Ver Recomendaciones" style="ellipse;whiteSpace=wrap;html=1;" vertex="1" parent="1">
          <mxGeometry x="170" y="420" width="101.25" height="60" as="geometry" />
        </mxCell>
        <mxCell id="ZcFm7ZKOEbG-pzqydENA-24" value="Generar Informes" style="ellipse;whiteSpace=wrap;html=1;" vertex="1" parent="1">
          <mxGeometry x="493" y="500" width="114" height="70" as="geometry" />
        </mxCell>
        <mxCell id="ZcFm7ZKOEbG-pzqydENA-25" value="Notificaciones" style="ellipse;whiteSpace=wrap;html=1;" vertex="1" parent="1">
          <mxGeometry x="501.5" y="360" width="97" height="70" as="geometry" />
        </mxCell>
        <mxCell id="ZcFm7ZKOEbG-pzqydENA-26" value="Administrar cuentas de usuario" style="ellipse;whiteSpace=wrap;html=1;" vertex="1" parent="1">
          <mxGeometry x="493" y="140" width="103" height="60" as="geometry" />
        </mxCell>
        <mxCell id="ZcFm7ZKOEbG-pzqydENA-27" value="Bibliotecaria" style="shape=umlActor;verticalLabelPosition=bottom;verticalAlign=top;html=1;outlineConnect=0;" vertex="1" parent="1">
          <mxGeometry x="750" y="110" width="30" height="60" as="geometry" />
        </mxCell>
        <mxCell id="ZcFm7ZKOEbG-pzqydENA-29" value="" style="endArrow=none;html=1;rounded=0;exitX=1;exitY=0.3333333333333333;exitDx=0;exitDy=0;exitPerimeter=0;entryX=0;entryY=0.5;entryDx=0;entryDy=0;" edge="1" parent="1" source="ZcFm7ZKOEbG-pzqydENA-1" target="ZcFm7ZKOEbG-pzqydENA-17">
          <mxGeometry width="50" height="50" relative="1" as="geometry">
            <mxPoint x="120" y="160" as="sourcePoint" />
            <mxPoint x="160" y="110" as="targetPoint" />
          </mxGeometry>
        </mxCell>
        <mxCell id="ZcFm7ZKOEbG-pzqydENA-30" value="" style="endArrow=none;html=1;rounded=0;entryX=1;entryY=0.5;entryDx=0;entryDy=0;exitX=1.003;exitY=0.633;exitDx=0;exitDy=0;exitPerimeter=0;" edge="1" parent="1" source="ZcFm7ZKOEbG-pzqydENA-21" target="ZcFm7ZKOEbG-pzqydENA-17">
          <mxGeometry width="50" height="50" relative="1" as="geometry">
            <mxPoint x="285" y="160" as="sourcePoint" />
            <mxPoint x="335" y="110" as="targetPoint" />
            <Array as="points">
              <mxPoint x="280" y="120" />
            </Array>
          </mxGeometry>
        </mxCell>
        <mxCell id="ZcFm7ZKOEbG-pzqydENA-31" value="&amp;lt;&amp;lt;Include&amp;gt;&amp;gt;" style="edgeLabel;html=1;align=center;verticalAlign=middle;resizable=0;points=[];" vertex="1" connectable="0" parent="ZcFm7ZKOEbG-pzqydENA-30">
          <mxGeometry x="0.2048" y="-1" relative="1" as="geometry">
            <mxPoint x="6" y="-1" as="offset" />
          </mxGeometry>
        </mxCell>
        <mxCell id="ZcFm7ZKOEbG-pzqydENA-32" value="" style="endArrow=none;html=1;rounded=0;entryX=0.5;entryY=0.5;entryDx=0;entryDy=0;entryPerimeter=0;exitX=1;exitY=0.5;exitDx=0;exitDy=0;" edge="1" parent="1" source="ZcFm7ZKOEbG-pzqydENA-17" target="ZcFm7ZKOEbG-pzqydENA-27">
          <mxGeometry width="50" height="50" relative="1" as="geometry">
            <mxPoint x="260" y="90" as="sourcePoint" />
            <mxPoint x="520" y="240" as="targetPoint" />
          </mxGeometry>
        </mxCell>
        <mxCell id="MnsypS_ngehv-l2YLNQh-1" value="" style="endArrow=none;html=1;rounded=0;entryX=0.5;entryY=1;entryDx=0;entryDy=0;exitX=0.5;exitY=0;exitDx=0;exitDy=0;" edge="1" parent="1" source="ZcFm7ZKOEbG-pzqydENA-16" target="ZcFm7ZKOEbG-pzqydENA-26">
          <mxGeometry width="50" height="50" relative="1" as="geometry">
            <mxPoint x="443" y="250" as="sourcePoint" />
            <mxPoint x="493" y="200" as="targetPoint" />
          </mxGeometry>
        </mxCell>
        <mxCell id="MnsypS_ngehv-l2YLNQh-2" value="" style="endArrow=none;html=1;rounded=0;entryX=0.5;entryY=1;entryDx=0;entryDy=0;exitX=0.5;exitY=0;exitDx=0;exitDy=0;" edge="1" parent="1" source="ZcFm7ZKOEbG-pzqydENA-14" target="ZcFm7ZKOEbG-pzqydENA-16">
          <mxGeometry width="50" height="50" relative="1" as="geometry">
            <mxPoint x="460" y="330" as="sourcePoint" />
            <mxPoint x="510" y="280" as="targetPoint" />
          </mxGeometry>
        </mxCell>
        <mxCell id="MnsypS_ngehv-l2YLNQh-3" value="" style="endArrow=none;html=1;rounded=0;entryX=0.5;entryY=1;entryDx=0;entryDy=0;exitX=0.5;exitY=0;exitDx=0;exitDy=0;" edge="1" parent="1" source="ZcFm7ZKOEbG-pzqydENA-25" target="ZcFm7ZKOEbG-pzqydENA-14">
          <mxGeometry width="50" height="50" relative="1" as="geometry">
            <mxPoint x="470" y="390" as="sourcePoint" />
            <mxPoint x="520" y="340" as="targetPoint" />
          </mxGeometry>
        </mxCell>
        <mxCell id="MnsypS_ngehv-l2YLNQh-4" value="" style="endArrow=none;html=1;rounded=0;entryX=0.5;entryY=1;entryDx=0;entryDy=0;exitX=0.5;exitY=0;exitDx=0;exitDy=0;" edge="1" parent="1" source="ZcFm7ZKOEbG-pzqydENA-11" target="ZcFm7ZKOEbG-pzqydENA-25">
          <mxGeometry width="50" height="50" relative="1" as="geometry">
            <mxPoint x="451.5" y="475" as="sourcePoint" />
            <mxPoint x="501.5" y="425" as="targetPoint" />
          </mxGeometry>
        </mxCell>
        <mxCell id="MnsypS_ngehv-l2YLNQh-5" value="" style="endArrow=none;html=1;rounded=0;entryX=0.5;entryY=1;entryDx=0;entryDy=0;exitX=0.5;exitY=0;exitDx=0;exitDy=0;" edge="1" parent="1" source="ZcFm7ZKOEbG-pzqydENA-24" target="ZcFm7ZKOEbG-pzqydENA-11">
          <mxGeometry width="50" height="50" relative="1" as="geometry">
            <mxPoint x="451.5" y="540" as="sourcePoint" />
            <mxPoint x="501.5" y="490" as="targetPoint" />
          </mxGeometry>
        </mxCell>
        <mxCell id="MnsypS_ngehv-l2YLNQh-6" value="" style="endArrow=none;html=1;rounded=0;entryX=0.5;entryY=0.5;entryDx=0;entryDy=0;entryPerimeter=0;exitX=1;exitY=0.5;exitDx=0;exitDy=0;" edge="1" parent="1" source="ZcFm7ZKOEbG-pzqydENA-26" target="ZcFm7ZKOEbG-pzqydENA-27">
          <mxGeometry width="50" height="50" relative="1" as="geometry">
            <mxPoint x="630" y="200" as="sourcePoint" />
            <mxPoint x="680" y="150" as="targetPoint" />
          </mxGeometry>
        </mxCell>
        <mxCell id="MnsypS_ngehv-l2YLNQh-7" value="" style="endArrow=none;html=1;rounded=0;entryX=0.579;entryY=0.967;entryDx=0;entryDy=0;entryPerimeter=0;exitX=0.5;exitY=0;exitDx=0;exitDy=0;" edge="1" parent="1" source="ZcFm7ZKOEbG-pzqydENA-21" target="ZcFm7ZKOEbG-pzqydENA-17">
          <mxGeometry width="50" height="50" relative="1" as="geometry">
            <mxPoint x="300" y="195" as="sourcePoint" />
            <mxPoint x="350" y="145" as="targetPoint" />
          </mxGeometry>
        </mxCell>
        <mxCell id="MnsypS_ngehv-l2YLNQh-8" value="" style="endArrow=none;html=1;rounded=0;entryX=0.603;entryY=1;entryDx=0;entryDy=0;entryPerimeter=0;exitX=0.5;exitY=0;exitDx=0;exitDy=0;" edge="1" parent="1" source="ZcFm7ZKOEbG-pzqydENA-22" target="ZcFm7ZKOEbG-pzqydENA-21">
          <mxGeometry width="50" height="50" relative="1" as="geometry">
            <mxPoint x="261.25" y="300" as="sourcePoint" />
            <mxPoint x="311.25" y="250" as="targetPoint" />
          </mxGeometry>
        </mxCell>
        <mxCell id="MnsypS_ngehv-l2YLNQh-9" value="" style="endArrow=none;html=1;rounded=0;entryX=0.5;entryY=1;entryDx=0;entryDy=0;exitX=0.5;exitY=0;exitDx=0;exitDy=0;" edge="1" parent="1" source="ZcFm7ZKOEbG-pzqydENA-13" target="ZcFm7ZKOEbG-pzqydENA-22">
          <mxGeometry width="50" height="50" relative="1" as="geometry">
            <mxPoint x="300" y="330" as="sourcePoint" />
            <mxPoint x="350" y="280" as="targetPoint" />
          </mxGeometry>
        </mxCell>
        <mxCell id="MnsypS_ngehv-l2YLNQh-10" value="" style="endArrow=none;html=1;rounded=0;entryX=0.581;entryY=0.96;entryDx=0;entryDy=0;entryPerimeter=0;exitX=0.5;exitY=0;exitDx=0;exitDy=0;" edge="1" parent="1" source="ZcFm7ZKOEbG-pzqydENA-20" target="ZcFm7ZKOEbG-pzqydENA-13">
          <mxGeometry width="50" height="50" relative="1" as="geometry">
            <mxPoint x="280" y="360" as="sourcePoint" />
            <mxPoint x="330" y="310" as="targetPoint" />
          </mxGeometry>
        </mxCell>
        <mxCell id="MnsypS_ngehv-l2YLNQh-11" value="" style="endArrow=none;html=1;rounded=0;entryX=0.5;entryY=1;entryDx=0;entryDy=0;exitX=0.572;exitY=0.04;exitDx=0;exitDy=0;exitPerimeter=0;" edge="1" parent="1" source="ZcFm7ZKOEbG-pzqydENA-19" target="ZcFm7ZKOEbG-pzqydENA-20">
          <mxGeometry width="50" height="50" relative="1" as="geometry">
            <mxPoint x="290" y="450" as="sourcePoint" />
            <mxPoint x="340" y="400" as="targetPoint" />
          </mxGeometry>
        </mxCell>
        <mxCell id="MnsypS_ngehv-l2YLNQh-12" value="" style="endArrow=none;html=1;rounded=0;entryX=0.5;entryY=1;entryDx=0;entryDy=0;exitX=0.681;exitY=0.033;exitDx=0;exitDy=0;exitPerimeter=0;" edge="1" parent="1" source="ZcFm7ZKOEbG-pzqydENA-23" target="ZcFm7ZKOEbG-pzqydENA-19">
          <mxGeometry width="50" height="50" relative="1" as="geometry">
            <mxPoint x="300" y="475" as="sourcePoint" />
            <mxPoint x="350" y="420" as="targetPoint" />
          </mxGeometry>
        </mxCell>
        <mxCell id="MnsypS_ngehv-l2YLNQh-13" value="" style="endArrow=none;html=1;rounded=0;entryX=0.5;entryY=1;entryDx=0;entryDy=0;exitX=0.658;exitY=0.02;exitDx=0;exitDy=0;exitPerimeter=0;" edge="1" parent="1" source="ZcFm7ZKOEbG-pzqydENA-18" target="ZcFm7ZKOEbG-pzqydENA-23">
          <mxGeometry width="50" height="50" relative="1" as="geometry">
            <mxPoint x="290" y="510" as="sourcePoint" />
            <mxPoint x="340" y="460" as="targetPoint" />
          </mxGeometry>
        </mxCell>
        <mxCell id="MnsypS_ngehv-l2YLNQh-14" value="" style="endArrow=none;html=1;rounded=0;entryX=0.5;entryY=1;entryDx=0;entryDy=0;exitX=0.645;exitY=0.033;exitDx=0;exitDy=0;exitPerimeter=0;" edge="1" parent="1" source="ZcFm7ZKOEbG-pzqydENA-15" target="ZcFm7ZKOEbG-pzqydENA-18">
          <mxGeometry width="50" height="50" relative="1" as="geometry">
            <mxPoint x="290" y="570" as="sourcePoint" />
            <mxPoint x="340" y="520" as="targetPoint" />
          </mxGeometry>
        </mxCell>
      </root>
    </mxGraphModel>
  </diagram>
</mxfile>
